<?xml version="1.0" encoding="UTF-8"?>
<!DOCTYPE svg PUBLIC "-//W3C//DTD SVG 1.1//EN" "http://www.w3.org/Graphics/SVG/1.1/DTD/svg11.dtd">
<!-- Creator: CorelDRAW 2019 (64-Bit) -->
<svg xmlns="http://www.w3.org/2000/svg" xml:space="preserve" width="159px" height="159px" version="1.1" style="shape-rendering:geometricPrecision; text-rendering:geometricPrecision; image-rendering:optimizeQuality; fill-rule:evenodd; clip-rule:evenodd"
viewBox="0 0 159 159"
 xmlns:xlink="http://www.w3.org/1999/xlink">
 <defs>
  <style type="text/css">
   <![CDATA[
    .fil0 {fill:#1976D2}
    .fil1 {fill:#FEFEFE}
   ]]>
  </style>
 </defs>
 <g id="Слой_x0020_1">
  <metadata id="CorelCorpID_0Corel-Layer"/>
  <g id="_1819091469328">
   <rect class="fil0" x="2.29" y="2.84" width="153.88" height="153.88" rx="31.18" ry="31.18"/>
   <g>
    <path class="fil1" d="M27.82 18.42c-5.04,0.68 -9.13,4.54 -9.96,9.38 -0.57,3.26 -0.17,51.73 -0.17,57.48 0,5.24 -0.47,44.55 0.39,47.62 1.39,4.99 5.53,8.3 10.66,8.5 2.47,0.09 7.45,0.22 9.76,-0.09 13.07,-1.74 9.96,-17.4 9.96,-28.38l0 -76.94c0,-5.38 0.55,-11.6 -4.11,-15.01 -1.82,-1.33 -3.9,-2.51 -6.9,-2.64 -2.39,-0.11 -7.47,-0.21 -9.63,0.08z"/>
    <path class="fil1" d="M120.1 18.42c-12.23,1.64 -10.1,14.49 -10.1,22.68 0,10.92 0,21.84 0,32.76 0,10.84 -0.24,21.95 0,32.77 0.26,11.81 11.65,12.79 20.87,11.59 4.31,-0.56 7.75,-3.65 9.08,-7.09 1.35,-3.51 0.82,-11.33 0.82,-15.63 0,-21.4 0.29,-44.35 0,-65.53 -0.16,-11.62 -11.64,-12.76 -20.67,-11.55z"/>
    <path class="fil1" d="M74.08 18.41c-6.48,0.79 -10.25,5.7 -10.26,12.77 -0.01,7.71 0.01,15.43 0.01,23.14 0,9.16 -2.41,23.06 9.32,25.34 1.89,0.36 9.37,0.37 11.44,0.11 6.96,-0.88 10.05,-6.4 10.05,-12.83 0,-7.71 -0.01,-15.42 -0.01,-23.14 0,-6.49 1.15,-16.62 -2.31,-20.9 -1.59,-1.97 -3.7,-3.71 -7.07,-4.38 -1.72,-0.34 -9.34,-0.34 -11.17,-0.11z"/>
   </g>
  </g>
 </g>
</svg>
