<?xml version="1.0" encoding="UTF-8"?>
<!DOCTYPE svg PUBLIC "-//W3C//DTD SVG 1.1//EN" "http://www.w3.org/Graphics/SVG/1.1/DTD/svg11.dtd">
<!-- Creator: CorelDRAW 2019 (64-Bit) -->
<svg xmlns="http://www.w3.org/2000/svg" xml:space="preserve" width="100px" height="100px" version="1.1" style="shape-rendering:geometricPrecision; text-rendering:geometricPrecision; image-rendering:optimizeQuality; fill-rule:evenodd; clip-rule:evenodd"
viewBox="0 0 100 100"
 xmlns:xlink="http://www.w3.org/1999/xlink">
 <defs>
  <style type="text/css">
   <![CDATA[
    .fil0 {fill:#59BD88}
    .fil1 {fill:#F5B2B6}
   ]]>
  </style>
 </defs>
 <g id="Слой_x0020_1">
  <metadata id="CorelCorpID_0Corel-Layer"/>
  <g id="_2197794251760">
   <path class="fil0" d="M91.89 76.8l-40.13 22.7 0 -17.67 25 -13.76 15.13 8.73zm2.74 -2.48l0 -47.46 -14.67 8.48 0 30.51 14.67 8.47zm-86.52 2.48l40.12 22.7 0 -17.67 -25.01 -13.76 -15.11 8.73zm-2.74 -2.48l0 -47.46 14.67 8.48 0 30.51 -14.67 8.47zm1.72 -50.54l41.14 -23.28 0 17.08 -26.57 14.63 -14.57 -8.43zm85.82 0l-41.15 -23.28 0 17.08 26.57 14.62 14.58 -8.42z"/>
   <path class="fil1" d="M48.23 78.58l-24.67 -13.58 0 -26.86 24.67 14.24 0 26.2zm3.53 0l24.67 -13.56 0 -26.89 -24.67 14.25 0 26.2zm-1.76 -27.23zm-24.77 -16.32l24.77 -13.61 24.76 13.62 -24.76 14.29 -24.77 -14.3z"/>
  </g>
 </g>
</svg>
